<svg width="112" height="64" viewBox="0 0 112 64" fill="none" xmlns="http://www.w3.org/2000/svg">
<path d="M16.8 4.57143C16.8 2.04286 19.3025 0 22.4 0H28C31.0975 0 33.6 2.04286 33.6 4.57143V27.4286V36.5714V59.4286C33.6 61.9571 31.0975 64 28 64H22.4C19.3025 64 16.8 61.9571 16.8 59.4286V50.2857H11.2C8.1025 50.2857 5.6 48.2429 5.6 45.7143V36.5714C2.5025 36.5714 0 34.5286 0 32C0 29.4714 2.5025 27.4286 5.6 27.4286V18.2857C5.6 15.7571 8.1025 13.7143 11.2 13.7143H16.8V4.57143ZM95.2 4.57143V13.7143H100.8C103.897 13.7143 106.4 15.7571 106.4 18.2857V27.4286C109.497 27.4286 112 29.4714 112 32C112 34.5286 109.497 36.5714 106.4 36.5714V45.7143C106.4 48.2429 103.897 50.2857 100.8 50.2857H95.2V59.4286C95.2 61.9571 92.6975 64 89.6 64H84C80.9025 64 78.4 61.9571 78.4 59.4286V36.5714V27.4286V4.57143C78.4 2.04286 80.9025 0 84 0H89.6C92.6975 0 95.2 2.04286 95.2 4.57143ZM72.8 27.4286V36.5714H39.2V27.4286H72.8Z" fill="#8ECCCC"/>
</svg>
