<svg width="122" height="122" viewBox="0 0 122 122" fill="none" xmlns="http://www.w3.org/2000/svg">
<path d="M0 0V121.625H122V0H0ZM66.392 94.8566C66.392 106.693 59.4205 112.096 49.2629 112.096C40.0857 112.096 34.7754 107.372 32.0522 101.644L41.3929 96.024C43.1902 99.2004 44.8241 101.888 48.7728 101.888C52.5308 101.888 54.9272 100.422 54.9272 94.6937V55.8443H66.392V94.8566ZM93.5152 112.096C82.8674 112.096 75.9777 107.046 72.6281 100.422L81.9688 95.0467C84.4196 99.0375 87.633 101.997 93.2701 101.997C98.0085 101.997 101.058 99.6348 101.058 96.3498C101.058 92.4404 97.954 91.0559 92.6982 88.7482L89.8388 87.5266C81.5603 84.0244 76.0866 79.5992 76.0866 70.2873C76.0866 61.7084 82.6496 55.1928 92.8616 55.1928C100.16 55.1928 105.388 57.7176 109.146 64.3418L100.214 70.043C98.2536 66.5408 96.1295 65.1562 92.8344 65.1562C89.4848 65.1562 87.3607 67.2738 87.3607 70.043C87.3607 73.4637 89.4848 74.8482 94.4138 76.993L97.2732 78.2147C107.022 82.3684 112.496 86.6307 112.496 96.1869C112.496 106.449 104.381 112.096 93.5152 112.096Z" fill="#8ECCCC"/>
</svg>
