<svg width="200" height="42" viewBox="0 0 200 42" fill="none" xmlns="http://www.w3.org/2000/svg">
<path d="M0.784 25.584V22.08L18.256 12.336V17.232L5.728 23.808L18.256 30.384V35.28L0.784 25.584ZM65.4861 36V13.104H71.8701V36H65.4861ZM68.7021 8.208C67.6141 8.208 66.7661 7.904 66.1581 7.296C65.5501 6.656 65.2461 5.872 65.2461 4.944C65.2461 4.016 65.5501 3.248 66.1581 2.64C66.7661 2 67.6141 1.68 68.7021 1.68C69.7581 1.68 70.5901 2 71.1981 2.64C71.8381 3.248 72.1581 4.016 72.1581 4.944C72.1581 5.872 71.8541 6.656 71.2461 7.296C70.6381 7.904 69.7901 8.208 68.7021 8.208ZM90.2238 31.824C91.2478 31.824 92.1438 31.696 92.9118 31.44C93.7118 31.152 94.3678 30.88 94.8798 30.624L96.0798 35.04C95.4398 35.392 94.5118 35.728 93.2958 36.048C92.0798 36.368 90.7518 36.528 89.3118 36.528C87.5838 36.528 85.9678 36.272 84.4638 35.76C82.9598 35.248 81.6478 34.496 80.5278 33.504C79.4398 32.48 78.5758 31.232 77.9358 29.76C77.2958 28.288 76.9758 26.576 76.9758 24.624C76.9758 22.832 77.2798 21.2 77.8878 19.728C78.4958 18.256 79.3438 16.992 80.4318 15.936C81.5198 14.88 82.8318 14.064 84.3678 13.488C85.9038 12.912 87.5838 12.624 89.4078 12.624C90.3998 12.624 91.4398 12.72 92.5278 12.912C93.6478 13.104 94.8158 13.52 96.0318 14.16L94.6878 18.576C94.0158 18.192 93.2798 17.888 92.4798 17.664C91.7118 17.408 90.9278 17.28 90.1278 17.28C88.1438 17.28 86.5278 17.888 85.2798 19.104C84.0638 20.32 83.4558 22.096 83.4558 24.432C83.4558 25.808 83.6478 26.976 84.0318 27.936C84.4478 28.864 84.9758 29.616 85.6158 30.192C86.2558 30.768 86.9758 31.184 87.7758 31.44C88.5758 31.696 89.3918 31.824 90.2238 31.824ZM106.829 36H100.445V1.728H106.829V15.168C107.757 14.432 108.813 13.824 109.997 13.344C111.213 12.864 112.525 12.624 113.933 12.624C115.277 12.624 116.445 12.832 117.437 13.248C118.461 13.632 119.293 14.192 119.933 14.928C120.605 15.632 121.101 16.496 121.421 17.52C121.741 18.512 121.901 19.6 121.901 20.784V36H115.517V21.888C115.517 20.32 115.197 19.2 114.557 18.528C113.917 17.856 112.989 17.52 111.773 17.52C110.941 17.52 110.077 17.728 109.181 18.144C108.317 18.528 107.533 19.056 106.829 19.728V36ZM128.155 15.12C129.531 14.32 130.987 13.712 132.523 13.296C134.059 12.848 135.691 12.624 137.419 12.624C138.795 12.624 140.043 12.784 141.163 13.104C142.315 13.424 143.291 13.936 144.091 14.64C144.923 15.312 145.547 16.192 145.963 17.28C146.411 18.336 146.635 19.616 146.635 21.12V36H141.691L141.115 33.648H140.923C140.187 34.544 139.243 35.248 138.091 35.76C136.971 36.272 135.659 36.528 134.155 36.528C132.907 36.528 131.803 36.352 130.843 36C129.883 35.616 129.067 35.12 128.395 34.512C127.723 33.872 127.211 33.12 126.859 32.256C126.539 31.392 126.379 30.464 126.379 29.472C126.379 28.16 126.651 27.04 127.195 26.112C127.771 25.152 128.555 24.368 129.547 23.76C130.539 23.152 131.691 22.704 133.003 22.416C134.347 22.128 135.787 21.984 137.323 21.984H140.203V20.592C140.203 19.536 139.867 18.768 139.195 18.288C138.555 17.776 137.643 17.52 136.459 17.52C135.531 17.52 134.571 17.664 133.579 17.952C132.619 18.24 131.547 18.704 130.363 19.344L128.155 15.12ZM140.251 25.968L138.187 26.016C136.235 26.08 134.875 26.416 134.107 27.024C133.339 27.6 132.955 28.304 132.955 29.136C132.955 30.224 133.275 30.976 133.915 31.392C134.587 31.776 135.339 31.968 136.171 31.968C137.003 31.968 137.787 31.728 138.523 31.248C139.291 30.768 139.867 30.208 140.251 29.568V25.968ZM152.713 36V1.728H159.001V36H152.713ZM182.472 35.28V30.384L195.048 23.808L182.472 17.232V12.336L199.944 22.08V25.584L182.472 35.28Z" fill="white"/>
<path d="M30.3734 36H23.9894V13.104H28.9814L29.7494 16.032C30.7734 14.976 31.8934 14.144 33.1094 13.536C34.3254 12.928 35.7014 12.624 37.2374 12.624C40.5014 12.624 42.7254 13.808 43.9094 16.176C44.9334 15.056 46.1014 14.192 47.4134 13.584C48.7254 12.944 50.1334 12.624 51.6374 12.624C54.0694 12.624 55.9254 13.28 57.2054 14.592C58.5174 15.904 59.1734 17.808 59.1734 20.304V36H52.7894V21.024C52.7894 19.936 52.5174 19.088 51.9734 18.48C51.4614 17.84 50.6934 17.52 49.6694 17.52C48.8054 17.52 47.9254 17.728 47.0294 18.144C46.1654 18.56 45.4134 19.152 44.7734 19.92V36H38.3894V21.024C38.3894 19.936 38.1174 19.088 37.5734 18.48C37.0614 17.84 36.2934 17.52 35.2694 17.52C34.4054 17.52 33.5254 17.76 32.6294 18.24C31.7654 18.688 31.0134 19.312 30.3734 20.112V36ZM162.014 41.232L175.167 -2.86102e-06H179.823L166.671 41.232H162.014Z" fill="#8ECCCC"/>
</svg>
