<svg width="84" height="74" viewBox="0 0 84 74" fill="none" xmlns="http://www.w3.org/2000/svg">
<path d="M24.4617 5.41786L22.7555 10.5714H10.5C4.70859 10.5714 0 15.3121 0 21.1429V63.4286C0 69.2594 4.70859 74 10.5 74H73.5C79.2914 74 84 69.2594 84 63.4286V21.1429C84 15.3121 79.2914 10.5714 73.5 10.5714H61.2445L59.5383 5.41786C58.4719 2.18036 55.4695 0 52.0734 0H31.9266C28.5305 0 25.5281 2.18036 24.4617 5.41786ZM42 26.4286C46.1772 26.4286 50.1832 28.0992 53.1369 31.073C56.0906 34.0468 57.75 38.0801 57.75 42.2857C57.75 46.4913 56.0906 50.5246 53.1369 53.4984C50.1832 56.4722 46.1772 58.1429 42 58.1429C37.8228 58.1429 33.8168 56.4722 30.8631 53.4984C27.9094 50.5246 26.25 46.4913 26.25 42.2857C26.25 38.0801 27.9094 34.0468 30.8631 31.073C33.8168 28.0992 37.8228 26.4286 42 26.4286Z" fill="#8ECCCC"/>
</svg>
