<svg width="121" height="120" viewBox="0 0 121 120" fill="none" xmlns="http://www.w3.org/2000/svg">
<path d="M117.804 45.0873C115.741 36.8191 111.831 30.5845 103.5 30.5845H92.7591V43.2677C92.7591 53.1146 84.402 61.4095 74.8663 61.4095H46.2591C38.4377 61.4095 31.9556 68.099 31.9556 75.939V103.178C31.9556 110.938 38.7056 115.487 46.2591 117.708C55.3127 120.357 64.0181 120.839 74.8663 117.708C82.0716 115.621 89.1698 111.42 89.1698 103.178V92.288H60.5895V88.649H103.5C111.831 88.649 114.911 82.8425 117.804 74.1462C120.804 65.1824 120.67 56.5664 117.804 45.0873ZM76.6609 99.5394C79.6341 99.5394 82.0448 101.974 82.0448 104.971C82.0448 107.995 79.6341 110.43 76.6609 110.43C73.7145 110.43 71.277 107.968 71.277 104.971C71.3038 101.948 73.7145 99.5394 76.6609 99.5394ZM44.9466 57.824H73.5538C81.5091 57.824 87.8573 51.2683 87.8573 43.2945V16.0283C87.8573 8.26851 81.3216 2.46206 73.5538 1.15093C63.9645 -0.427779 53.5448 -0.347505 44.9466 1.17769C32.8395 3.31832 30.6431 7.78687 30.6431 16.055V26.9455H59.277V30.5845H19.902C11.5716 30.5845 4.28591 35.5882 2.00913 45.0873C-0.615871 55.9777 -0.723013 62.7742 2.00913 74.1462C4.04484 82.6017 8.89306 88.649 17.2234 88.649H27.0538V75.5912C27.0538 66.1457 35.2234 57.824 44.9466 57.824ZM43.152 19.6673C40.1788 19.6673 37.7681 17.2324 37.7681 14.2355C37.7948 11.2119 40.1788 8.77691 43.152 8.77691C46.0984 8.77691 48.5359 11.2386 48.5359 14.2355C48.5359 17.2324 46.1252 19.6673 43.152 19.6673Z" fill="#8ECCCC"/>
</svg>
