<svg width="120" height="106" viewBox="0 0 120 106" fill="none" xmlns="http://www.w3.org/2000/svg">
<path d="M98.0156 34.5312C96.75 34.1094 95.4844 33.7109 94.2188 33.3359C94.4297 32.4687 94.6172 31.6016 94.8047 30.7344C97.6875 16.7656 95.7891 5.53906 89.3906 1.83594C83.2266 -1.70313 73.1719 1.97656 63 10.8359C61.9922 11.7031 61.0078 12.6172 60.0703 13.5312C59.4375 12.9219 58.7812 12.3125 58.125 11.7266C47.4609 2.25781 36.7734 -1.72656 30.375 2C24.2344 5.5625 22.4062 16.1328 24.9844 29.3516C25.2422 30.6641 25.5234 31.9531 25.8516 33.2656C24.3516 33.6875 22.875 34.1562 21.4922 34.6484C8.97656 38.9844 0 45.8281 0 52.9062C0 60.2188 9.5625 67.5547 22.5703 72.0078C23.625 72.3594 24.6797 72.7109 25.7578 73.0156C25.4062 74.4219 25.1016 75.8047 24.8203 77.2344C22.3594 90.2422 24.2812 100.555 30.4219 104.094C36.75 107.75 47.3906 104 57.75 94.9297C58.5703 94.2031 59.3906 93.4531 60.2109 92.6562C61.2422 93.6641 62.3203 94.625 63.3984 95.5625C73.4297 104.188 83.3438 107.68 89.4609 104.141C95.7891 100.484 97.8516 89.3984 95.1797 75.8984C94.9688 74.8672 94.7344 73.8125 94.4766 72.7344C95.2266 72.5234 95.9531 72.2891 96.6797 72.0547C110.203 67.5781 120 60.3359 120 52.9062C120 45.8047 110.766 38.9141 98.0156 34.5312ZM66.3047 14.6328C75.0234 7.03906 83.1562 4.0625 86.8594 6.19531C90.8203 8.46875 92.3438 17.6562 89.8594 29.7266C89.6953 30.5234 89.5312 31.2969 89.3203 32.0703C84.1172 30.8984 78.8438 30.0547 73.5469 29.5859C70.5 25.2266 67.1719 21.0547 63.5625 17.1406C64.4766 16.2734 65.3672 15.4531 66.3047 14.6328ZM39.1875 65.0703C40.3828 67.1094 41.6016 69.1484 42.8906 71.1406C39.2344 70.7422 35.6016 70.1562 32.0156 69.3828C33.0469 66.0078 34.3359 62.5156 35.8359 58.9531C36.9141 61.0156 38.0156 63.0547 39.1875 65.0703ZM32.0859 36.875C35.4609 36.125 39.0469 35.5156 42.7734 35.0469C41.5312 36.9922 40.3125 38.9844 39.1641 41C38.0156 42.9922 36.8906 45.0312 35.8359 47.0937C34.3594 43.6016 33.1172 40.1797 32.0859 36.875ZM38.5078 53.0234C40.0547 49.7891 41.7422 46.625 43.5234 43.5078C45.3047 40.3906 47.2266 37.3672 49.2422 34.3906C52.7578 34.1328 56.3438 33.9922 60 33.9922C63.6562 33.9922 67.2656 34.1328 70.7578 34.3906C72.75 37.3438 74.6484 40.3672 76.4531 43.4609C78.2578 46.5547 79.9453 49.7187 81.5391 52.9297C79.9688 56.1641 78.2812 59.3516 76.4766 62.4922C74.6953 65.6094 72.7969 68.6328 70.8047 71.6328C67.3125 71.8906 63.6797 72.0078 60 72.0078C56.3203 72.0078 52.7578 71.8906 49.3125 71.6797C47.2734 68.7031 45.3516 65.6562 43.5469 62.5391C41.7422 59.4219 40.0781 56.2578 38.5078 53.0234ZM80.8359 65.0234C82.0312 62.9609 83.1562 60.875 84.2578 58.7656C85.7578 62.1641 87.0703 65.6094 88.2188 69.1484C84.5859 69.9687 80.9062 70.6016 77.2031 71.0234C78.4688 69.0547 79.6641 67.0391 80.8359 65.0234ZM84.2109 47.0937C83.1094 45.0312 81.9844 42.9688 80.8125 40.9531C79.6641 38.9609 78.4688 36.9922 77.2266 35.0469C81 35.5156 84.6094 36.1484 87.9844 36.9219C86.9062 40.3906 85.6406 43.7656 84.2109 47.0937ZM60.0469 20.7266C62.5078 23.3984 64.8281 26.2109 66.9844 29.1172C62.3437 28.9062 57.6797 28.9062 53.0391 29.1172C55.3359 26.0938 57.7031 23.2812 60.0469 20.7266ZM32.8594 6.35937C36.7969 4.0625 45.5391 7.34375 54.75 15.5C55.3359 16.0156 55.9219 16.5781 56.5312 17.1406C52.8984 21.0547 49.5469 25.2266 46.4766 29.5859C41.1797 30.0547 35.9297 30.875 30.7266 32.0234C30.4219 30.8281 30.1641 29.6094 29.9062 28.3906C27.7031 17.0469 29.1562 8.49219 32.8594 6.35937ZM27.1172 68.1406C26.1328 67.8594 25.1719 67.5547 24.2109 67.2266C19.2188 65.6562 13.5469 63.1719 9.44531 59.9141C7.07812 58.2734 5.48438 55.7422 5.03906 52.9062C5.03906 48.6172 12.4453 43.1328 23.1328 39.4062C24.4688 38.9375 25.8281 38.5156 27.1875 38.1172C28.7812 43.2031 30.7031 48.1953 32.9297 53.0234C30.6797 57.9219 28.7344 62.9844 27.1172 68.1406ZM54.4453 91.1094C50.5781 94.6484 46.1016 97.4609 41.2266 99.3828C38.625 100.625 35.625 100.742 32.9531 99.6875C29.2266 97.5312 27.6797 89.2578 29.7891 78.125C30.0469 76.8125 30.3281 75.5 30.6562 74.2109C35.9062 75.3359 41.2031 76.1094 46.5703 76.5078C49.6641 80.8906 53.0625 85.0859 56.6953 89.0234C55.9453 89.75 55.1953 90.4531 54.4453 91.1094ZM60.1875 85.4141C57.7969 82.8359 55.4062 79.9766 53.0859 76.9062C55.3359 77 57.6562 77.0469 60 77.0469C62.4141 77.0469 64.7812 77 67.125 76.8828C64.9688 79.8594 62.6484 82.6953 60.1875 85.4141ZM90.8203 92.4453C90.6094 95.3047 89.2031 97.9766 86.9531 99.7812C83.2266 101.938 75.2812 99.125 66.7031 91.7656C65.7188 90.9219 64.7344 90.0078 63.7266 89.0703C67.3125 85.1094 70.6172 80.9141 73.6172 76.5078C78.9844 76.0625 84.3281 75.2422 89.6016 74.0469C89.8359 75.0078 90.0469 75.9688 90.2344 76.9062C91.3828 81.9688 91.5703 87.2422 90.8203 92.4453ZM95.0859 67.25C94.4297 67.4609 93.7734 67.6719 93.0938 67.8594C91.4531 62.75 89.4375 57.7578 87.1172 52.9062C89.3672 48.125 91.2656 43.2031 92.8594 38.1641C94.0781 38.5156 95.25 38.8906 96.375 39.2656C107.297 43.0156 114.961 48.5937 114.961 52.8594C114.961 57.4531 106.781 63.3828 95.0859 67.25ZM60 63.7344C65.9297 63.7344 70.7344 58.9297 70.7344 53C70.7344 47.0703 65.9297 42.2656 60 42.2656C54.0703 42.2656 49.2656 47.0703 49.2656 53C49.2656 58.9297 54.0703 63.7344 60 63.7344Z" fill="#8ECCCC"/>
</svg>
